<?xml version="1.0" encoding="UTF-8"?>
<svg id="Capa_2" data-name="Capa 2" xmlns="http://www.w3.org/2000/svg" viewBox="0 0 641.19 529.94">
  <defs>
    <style>
      .cls-1 {
        fill: #fff;
      }
    </style>
  </defs>
  <g id="Capa_1-2" data-name="Capa 1">
    <g>
      <g>
        <path class="cls-1" d="M190.6,327.43c-4.64,1.37-12.3,3.56-25.33,3.56-4.74.05-10.17,0-14.3-2.54-13.33,9.85-29.64,10.48-44.33,5.84-1.33.76-2.77,1.69-4.26,2.64-5.62,3.6-12.6,8.08-21.54,8.8-1.44.13-2.86.2-4.22.2-2.83,0-5.28-.29-7.51-.88-1.37-.36-2.66-.86-3.86-1.47-1.88,5.04-3.76,10.09-5.62,15.14-6.08,16.49-11.59,33.09-17.6,49.6-4.23,11.63-9.02,23.17-13.26,34.8-8.39,22.99-16.12,46.11-27.04,68.58-2.91,5.98-2.17,9.06,2.31,12.66,4.4,3.54,9.59,5.63,15.86,5.58,18.7-.13,37.38-.15,56.13-.53,5.47-.11,11.15-.85,16.71-2.04,26.18-5.58,45.78-27.74,49.03-45.37.3-1.63.94-3.28,1.54-4.9,3.93-10.54,8.05-21.04,11.82-31.6,7.43-20.87,14.54-41.78,22.02-62.64,6.01-16.76,12.18-33.5,18.32-50.24-1.8-2.03-3.3-3.65-4.53-4.87-.12-.12-.23-.22-.33-.33Z"/>
        <path class="cls-1" d="M150.45,188.76c2.23,1.43,4.04,2.93,5.5,2.83,6.25.82,13.52-.16,19.88-.29,31.07-.06,32.91,22.03,61.53-.94,5.9-4.24,11.83-8.54,17.75-12.86,5.4-13.66,10.85-27.31,16.41-40.94,14.9-36.48,29.01-73.19,47.1-108.88,4.14-8.16,3.37-15.12-.28-21.6-2.09-3.71-5.17-5.99-10.18-5.57-2.5.21-4.95-.07-7.45.21-14.84,1.63-29.29,1.1-43.8.85-6.84-.12-13.72-.15-20.65.34-19.22,1.35-35.86,10.53-50.4,25.02-3.15,3.14-5.65,7.01-8.01,10.76-5.12,8.12-8.51,16.76-11.17,25.51-4.57,15.01-9.34,29.96-15.27,44.79-6.01,15.04-11.07,30.29-16.59,45.45-3.44,9.46-6.9,18.93-10.36,28.39,1.91-.38,3.82-.57,5.7-.57,9.2,0,15.61,4.34,20.28,7.51Z"/>
      </g>
      <path class="cls-1" d="M607.58,0c22.74,0,47.29,6.74,24.57,28.55-28.4,10.23-55.38,25.45-81.04,43.53-49.43,32.44-94.46,70.91-138.36,110.73-20.66,17.98-42.19,37.75-55.55,60.85-5.15,18.03-6.59,35.74-12.99,53.45.24,13.94,13.07,22.83,19.15,33.97,5.92,14.39,14.88,26.77,24.69,38.37,22.21,26.99,40.95,56.63,65.29,81.78,15.89,15.2,30.89,31.5,49.81,43.49,11.59,3.67,19.36,17.36,5.86,28.92-5.69,4.32-13.5,4.04-19.65,5.96-119.32-3.66-201.2-117.9-270.48-191.56-8.69-10.24-14.09-16.6-17.94-20.41-3.87-3.83-6.17-5.07-8.68-5.07-4.61,0-9.92,4.19-26.98,4.19-1.8,0-3.72-.05-5.79-.15-3.34-.78-5.62-4.44-8.9-4.44-1.24,0-2.62.52-4.25,1.92-7.98,6.67-15,8.83-21.8,8.83-6.33,0-12.46-1.88-19-3.73-8.96,2.93-16.53,11.64-25.91,12.35-.84.08-1.9.15-3,.15-2.66,0-5.57-.4-6.17-2.01,7.22-19.22,14.49-38.44,21.59-57.68,6.78-18.39,13.07-36.86,19.71-55.27,2.33-6.47,4.68-12.93,7.04-19.4,1.9-1,5.33-.09,7.23-1.28,1.48-.41,2.85-.59,4.14-.59,9.62,0,14.77,9.94,24.73,10.31,2.3.26,4.54.33,6.78.33,2.49,0,4.97-.1,7.51-.15,2.36-.31,4.56-.44,6.64-.44,17.6,0,25.87,9.86,39.19,9.86,7.61,0,16.86-3.22,30.44-13.32.07-.05.14-.1.21-.15,57.36-41.24,113.86-85.29,173.94-122.33,52.25-33.61,107.39-64.76,164.93-76.95,5.4-1.58,14.08-2.63,23.03-2.63"/>
    </g>
  </g>
</svg>